<svg xmlns="http://www.w3.org/2000/svg" viewBox="0 0 600 200" fill="none">
  <rect width="600" height="200" rx="20" fill="#FF671D"/>
  <g opacity="0.15">
    <circle cx="80" cy="100" r="60" fill="white"/>
    <circle cx="520" cy="60" r="40" fill="white"/>
    <circle cx="450" cy="160" r="50" fill="white"/>
    <circle cx="200" cy="40" r="30" fill="white"/>
  </g>
  <g transform="translate(220, 50)">
    <path d="M80 20C80 8.954 89.954 0 102 0h16c12.046 0 22 8.954 22 20v8c0 2.21-1.79 4-4 4H84c-2.21 0-4-1.79-4-4v-8z" fill="white" opacity="0.9"/>
    <rect x="60" y="28" width="120" height="80" rx="12" fill="white" opacity="0.9"/>
    <circle cx="90" cy="58" r="6" fill="#FF671D" opacity="0.6"/>
    <circle cx="120" cy="52" r="5" fill="#FF671D" opacity="0.6"/>
    <circle cx="105" cy="72" r="7" fill="#FF671D" opacity="0.6"/>
    <circle cx="140" cy="68" r="4" fill="#FF671D" opacity="0.6"/>
    <circle cx="80" cy="80" r="3" fill="#FF671D" opacity="0.6"/>
    <path d="M160 68c4-1 8 2 7 6-1 3-5 4-7 2" stroke="white" stroke-width="3" stroke-linecap="round" opacity="0.7"/>
  </g>
</svg>
